<?xml version="1.0" encoding="us-ascii" standalone="no"?><svg xmlns="http://www.w3.org/2000/svg" xmlns:xlink="http://www.w3.org/1999/xlink" contentStyleType="text/css" height="754px" preserveAspectRatio="none" style="width:810px;height:754px;background:#FFFFFF;" version="1.1" viewBox="0 0 810 754" width="810px" zoomAndPan="magnify"><defs/><g><!--class conferencias--><g id="elem_conferencias"><rect codeLine="2" fill="#F1F1F1" height="153.6563" id="conferencias" rx="2.5" ry="2.5" style="stroke:#181818;stroke-width:0.5;" width="213" x="309" y="33"/><ellipse cx="370.75" cy="49" fill="#ADD1B2" rx="11" ry="11" style="stroke:#181818;stroke-width:1.0;"/><path d="M369.6094,49.7969 L369.6094,52.2969 L373.9375,52.2969 L373.9375,51.375 Q373.9375,50.7656 374.1719,50.5 Q374.4219,50.2344 374.7969,50.2344 Q375.1719,50.2344 375.4063,50.5 Q375.6406,50.7656 375.6406,51.375 L375.6406,54 L367.6406,54 Q367.0156,54 366.75,53.7656 Q366.5,53.5313 366.5,53.1406 Q366.5,52.7656 366.7656,52.5313 Q367.0313,52.2969 367.6406,52.2969 L367.9063,52.2969 L367.9063,45.6406 L367.6406,45.6406 Q367.0156,45.6406 366.75,45.4063 Q366.5,45.1719 366.5,44.7813 Q366.5,44.4063 366.75,44.1719 Q367.0156,43.9375 367.6406,43.9375 L375.2656,43.9375 L375.2656,46.5313 Q375.2656,47.1406 375.0313,47.4063 Q374.8125,47.6563 374.4219,47.6563 Q374.0469,47.6563 373.8125,47.4063 Q373.5781,47.1406 373.5781,46.5313 L373.5781,45.6406 L369.6094,45.6406 L369.6094,48.0938 L371.0938,48.0938 Q371.0938,47.4375 371.2188,47.25 Q371.4844,46.8438 371.9531,46.8438 Q372.3281,46.8438 372.5625,47.1094 Q372.7969,47.3594 372.7969,47.9688 L372.7969,49.9375 Q372.7969,50.4844 372.6719,50.6719 Q372.4063,51.0625 371.9531,51.0625 Q371.4844,51.0625 371.2188,50.6563 Q371.0938,50.4688 371.0938,49.7969 L369.6094,49.7969 Z " fill="#000000"/><text fill="#000000" font-family="sans-serif" font-size="14" lengthAdjust="spacing" textLength="81" x="391.25" y="54.7285">conferencias</text><line style="stroke:#181818;stroke-width:0.5;" x1="310" x2="521" y1="65" y2="65"/><ellipse cx="320" cy="79.3047" fill="none" rx="3" ry="3" style="stroke:#038048;stroke-width:1.0;"/><text fill="#000000" font-family="sans-serif" font-size="14" lengthAdjust="spacing" textLength="41" x="329" y="83.5332">id : PK</text><text fill="#000000" font-family="sans-serif" font-size="14" lengthAdjust="spacing" textLength="69" x="329" y="101.1426">title : string</text><text fill="#000000" font-family="sans-serif" font-size="14" lengthAdjust="spacing" textLength="116" x="329" y="118.752">description : string</text><text fill="#000000" font-family="sans-serif" font-size="14" lengthAdjust="spacing" textLength="134" x="329" y="136.3613">created_at : datetime</text><text fill="#000000" font-family="sans-serif" font-size="14" lengthAdjust="spacing" textLength="138" x="329" y="153.9707">updated_at : datetime</text><line style="stroke:#181818;stroke-width:0.5;" x1="310" x2="521" y1="161.0469" y2="161.0469"/><text fill="#000000" font-family="sans-serif" font-size="14" lengthAdjust="spacing" textLength="201" x="315" y="179.5801">status : enum('Active', 'Inactive')</text></g><!--class inscripciones--><g id="elem_inscripciones"><rect codeLine="11" fill="#F1F1F1" height="153.6563" id="inscripciones" rx="2.5" ry="2.5" style="stroke:#181818;stroke-width:0.5;" width="228" x="437.5" y="291"/><ellipse cx="506.25" cy="307" fill="#ADD1B2" rx="11" ry="11" style="stroke:#181818;stroke-width:1.0;"/><path d="M505.1094,307.7969 L505.1094,310.2969 L509.4375,310.2969 L509.4375,309.375 Q509.4375,308.7656 509.6719,308.5 Q509.9219,308.2344 510.2969,308.2344 Q510.6719,308.2344 510.9063,308.5 Q511.1406,308.7656 511.1406,309.375 L511.1406,312 L503.1406,312 Q502.5156,312 502.25,311.7656 Q502,311.5313 502,311.1406 Q502,310.7656 502.2656,310.5313 Q502.5313,310.2969 503.1406,310.2969 L503.4063,310.2969 L503.4063,303.6406 L503.1406,303.6406 Q502.5156,303.6406 502.25,303.4063 Q502,303.1719 502,302.7813 Q502,302.4063 502.25,302.1719 Q502.5156,301.9375 503.1406,301.9375 L510.7656,301.9375 L510.7656,304.5313 Q510.7656,305.1406 510.5313,305.4063 Q510.3125,305.6563 509.9219,305.6563 Q509.5469,305.6563 509.3125,305.4063 Q509.0781,305.1406 509.0781,304.5313 L509.0781,303.6406 L505.1094,303.6406 L505.1094,306.0938 L506.5938,306.0938 Q506.5938,305.4375 506.7188,305.25 Q506.9844,304.8438 507.4531,304.8438 Q507.8281,304.8438 508.0625,305.1094 Q508.2969,305.3594 508.2969,305.9688 L508.2969,307.9375 Q508.2969,308.4844 508.1719,308.6719 Q507.9063,309.0625 507.4531,309.0625 Q506.9844,309.0625 506.7188,308.6563 Q506.5938,308.4688 506.5938,307.7969 L505.1094,307.7969 Z " fill="#000000"/><text fill="#000000" font-family="sans-serif" font-size="14" lengthAdjust="spacing" textLength="82" x="526.75" y="312.7285">inscripciones</text><line style="stroke:#181818;stroke-width:0.5;" x1="438.5" x2="664.5" y1="323" y2="323"/><ellipse cx="448.5" cy="337.3047" fill="none" rx="3" ry="3" style="stroke:#038048;stroke-width:1.0;"/><text fill="#000000" font-family="sans-serif" font-size="14" lengthAdjust="spacing" textLength="41" x="457.5" y="341.5332">id : PK</text><text fill="#000000" font-family="sans-serif" font-size="14" lengthAdjust="spacing" textLength="120" x="457.5" y="359.1426">conference_id : FK</text><text fill="#000000" font-family="sans-serif" font-size="14" lengthAdjust="spacing" textLength="93" x="457.5" y="376.752">person_id : FK</text><text fill="#000000" font-family="sans-serif" font-size="14" lengthAdjust="spacing" textLength="173" x="457.5" y="394.3613">registration_date : datetime</text><text fill="#000000" font-family="sans-serif" font-size="14" lengthAdjust="spacing" textLength="138" x="457.5" y="411.9707">updated_at : datetime</text><line style="stroke:#181818;stroke-width:0.5;" x1="438.5" x2="664.5" y1="419.0469" y2="419.0469"/><text fill="#000000" font-family="sans-serif" font-size="14" lengthAdjust="spacing" textLength="216" x="443.5" y="437.5801">status : enum('Active', 'Cancelled')</text></g><!--class ponencias--><g id="elem_ponencias"><rect codeLine="20" fill="#F1F1F1" height="224.0938" id="ponencias" rx="2.5" ry="2.5" style="stroke:#181818;stroke-width:0.5;" width="213" x="255" y="523"/><ellipse cx="324.75" cy="539" fill="#ADD1B2" rx="11" ry="11" style="stroke:#181818;stroke-width:1.0;"/><path d="M323.6094,539.7969 L323.6094,542.2969 L327.9375,542.2969 L327.9375,541.375 Q327.9375,540.7656 328.1719,540.5 Q328.4219,540.2344 328.7969,540.2344 Q329.1719,540.2344 329.4063,540.5 Q329.6406,540.7656 329.6406,541.375 L329.6406,544 L321.6406,544 Q321.0156,544 320.75,543.7656 Q320.5,543.5313 320.5,543.1406 Q320.5,542.7656 320.7656,542.5313 Q321.0313,542.2969 321.6406,542.2969 L321.9063,542.2969 L321.9063,535.6406 L321.6406,535.6406 Q321.0156,535.6406 320.75,535.4063 Q320.5,535.1719 320.5,534.7813 Q320.5,534.4063 320.75,534.1719 Q321.0156,533.9375 321.6406,533.9375 L329.2656,533.9375 L329.2656,536.5313 Q329.2656,537.1406 329.0313,537.4063 Q328.8125,537.6563 328.4219,537.6563 Q328.0469,537.6563 327.8125,537.4063 Q327.5781,537.1406 327.5781,536.5313 L327.5781,535.6406 L323.6094,535.6406 L323.6094,538.0938 L325.0938,538.0938 Q325.0938,537.4375 325.2188,537.25 Q325.4844,536.8438 325.9531,536.8438 Q326.3281,536.8438 326.5625,537.1094 Q326.7969,537.3594 326.7969,537.9688 L326.7969,539.9375 Q326.7969,540.4844 326.6719,540.6719 Q326.4063,541.0625 325.9531,541.0625 Q325.4844,541.0625 325.2188,540.6563 Q325.0938,540.4688 325.0938,539.7969 L323.6094,539.7969 Z " fill="#000000"/><text fill="#000000" font-family="sans-serif" font-size="14" lengthAdjust="spacing" textLength="65" x="345.25" y="544.7285">ponencias</text><line style="stroke:#181818;stroke-width:0.5;" x1="256" x2="467" y1="555" y2="555"/><ellipse cx="266" cy="569.3047" fill="none" rx="3" ry="3" style="stroke:#038048;stroke-width:1.0;"/><text fill="#000000" font-family="sans-serif" font-size="14" lengthAdjust="spacing" textLength="41" x="275" y="573.5332">id : PK</text><text fill="#000000" font-family="sans-serif" font-size="14" lengthAdjust="spacing" textLength="120" x="275" y="591.1426">conference_id : FK</text><text fill="#000000" font-family="sans-serif" font-size="14" lengthAdjust="spacing" textLength="69" x="275" y="608.752">title : string</text><text fill="#000000" font-family="sans-serif" font-size="14" lengthAdjust="spacing" textLength="144" x="275" y="626.3613">presenter : persona_id</text><text fill="#000000" font-family="sans-serif" font-size="14" lengthAdjust="spacing" textLength="128" x="275" y="643.9707">start_time : datetime</text><text fill="#000000" font-family="sans-serif" font-size="14" lengthAdjust="spacing" textLength="124" x="275" y="661.5801">end_time : datetime</text><text fill="#000000" font-family="sans-serif" font-size="14" lengthAdjust="spacing" textLength="134" x="275" y="679.1895">created_at : datetime</text><text fill="#000000" font-family="sans-serif" font-size="14" lengthAdjust="spacing" textLength="138" x="275" y="696.7988">updated_at : datetime</text><line style="stroke:#181818;stroke-width:0.5;" x1="256" x2="467" y1="703.875" y2="703.875"/><text fill="#000000" font-family="sans-serif" font-size="14" lengthAdjust="spacing" textLength="201" x="261" y="722.4082">status : enum('Active', 'Inactive')</text><text fill="#000000" font-family="sans-serif" font-size="14" lengthAdjust="spacing" textLength="191" x="261" y="740.0176">duration : integer (en minutos)</text></g><!--class cronograma--><g id="elem_cronograma"><rect codeLine="33" fill="#F1F1F1" height="153.6563" id="cronograma" rx="2.5" ry="2.5" style="stroke:#181818;stroke-width:0.5;" width="164" x="238.5" y="291"/><ellipse cx="278.7" cy="307" fill="#ADD1B2" rx="11" ry="11" style="stroke:#181818;stroke-width:1.0;"/><path d="M277.5594,307.7969 L277.5594,310.2969 L281.8875,310.2969 L281.8875,309.375 Q281.8875,308.7656 282.1219,308.5 Q282.3719,308.2344 282.7469,308.2344 Q283.1219,308.2344 283.3563,308.5 Q283.5906,308.7656 283.5906,309.375 L283.5906,312 L275.5906,312 Q274.9656,312 274.7,311.7656 Q274.45,311.5313 274.45,311.1406 Q274.45,310.7656 274.7156,310.5313 Q274.9813,310.2969 275.5906,310.2969 L275.8563,310.2969 L275.8563,303.6406 L275.5906,303.6406 Q274.9656,303.6406 274.7,303.4063 Q274.45,303.1719 274.45,302.7813 Q274.45,302.4063 274.7,302.1719 Q274.9656,301.9375 275.5906,301.9375 L283.2156,301.9375 L283.2156,304.5313 Q283.2156,305.1406 282.9813,305.4063 Q282.7625,305.6563 282.3719,305.6563 Q281.9969,305.6563 281.7625,305.4063 Q281.5281,305.1406 281.5281,304.5313 L281.5281,303.6406 L277.5594,303.6406 L277.5594,306.0938 L279.0438,306.0938 Q279.0438,305.4375 279.1688,305.25 Q279.4344,304.8438 279.9031,304.8438 Q280.2781,304.8438 280.5125,305.1094 Q280.7469,305.3594 280.7469,305.9688 L280.7469,307.9375 Q280.7469,308.4844 280.6219,308.6719 Q280.3563,309.0625 279.9031,309.0625 Q279.4344,309.0625 279.1688,308.6563 Q279.0438,308.4688 279.0438,307.7969 L277.5594,307.7969 Z " fill="#000000"/><text fill="#000000" font-family="sans-serif" font-size="14" lengthAdjust="spacing" textLength="76" x="298.3" y="312.7285">cronograma</text><line style="stroke:#181818;stroke-width:0.5;" x1="239.5" x2="401.5" y1="323" y2="323"/><ellipse cx="249.5" cy="337.3047" fill="none" rx="3" ry="3" style="stroke:#038048;stroke-width:1.0;"/><text fill="#000000" font-family="sans-serif" font-size="14" lengthAdjust="spacing" textLength="41" x="258.5" y="341.5332">id : PK</text><text fill="#000000" font-family="sans-serif" font-size="14" lengthAdjust="spacing" textLength="120" x="258.5" y="359.1426">conference_id : FK</text><text fill="#000000" font-family="sans-serif" font-size="14" lengthAdjust="spacing" textLength="94" x="258.5" y="376.752">date : datetime</text><text fill="#000000" font-family="sans-serif" font-size="14" lengthAdjust="spacing" textLength="92" x="258.5" y="394.3613">activities : json</text><text fill="#000000" font-family="sans-serif" font-size="14" lengthAdjust="spacing" textLength="134" x="258.5" y="411.9707">created_at : datetime</text><text fill="#000000" font-family="sans-serif" font-size="14" lengthAdjust="spacing" textLength="138" x="258.5" y="429.5801">updated_at : datetime</text><line style="stroke:#181818;stroke-width:0.5;" x1="239.5" x2="401.5" y1="436.6563" y2="436.6563"/></g><!--class talleres--><g id="elem_talleres"><rect codeLine="42" fill="#F1F1F1" height="206.4844" id="talleres" rx="2.5" ry="2.5" style="stroke:#181818;stroke-width:0.5;" width="213" x="7" y="532"/><ellipse cx="86.25" cy="548" fill="#ADD1B2" rx="11" ry="11" style="stroke:#181818;stroke-width:1.0;"/><path d="M85.1094,548.7969 L85.1094,551.2969 L89.4375,551.2969 L89.4375,550.375 Q89.4375,549.7656 89.6719,549.5 Q89.9219,549.2344 90.2969,549.2344 Q90.6719,549.2344 90.9063,549.5 Q91.1406,549.7656 91.1406,550.375 L91.1406,553 L83.1406,553 Q82.5156,553 82.25,552.7656 Q82,552.5313 82,552.1406 Q82,551.7656 82.2656,551.5313 Q82.5313,551.2969 83.1406,551.2969 L83.4063,551.2969 L83.4063,544.6406 L83.1406,544.6406 Q82.5156,544.6406 82.25,544.4063 Q82,544.1719 82,543.7813 Q82,543.4063 82.25,543.1719 Q82.5156,542.9375 83.1406,542.9375 L90.7656,542.9375 L90.7656,545.5313 Q90.7656,546.1406 90.5313,546.4063 Q90.3125,546.6563 89.9219,546.6563 Q89.5469,546.6563 89.3125,546.4063 Q89.0781,546.1406 89.0781,545.5313 L89.0781,544.6406 L85.1094,544.6406 L85.1094,547.0938 L86.5938,547.0938 Q86.5938,546.4375 86.7188,546.25 Q86.9844,545.8438 87.4531,545.8438 Q87.8281,545.8438 88.0625,546.1094 Q88.2969,546.3594 88.2969,546.9688 L88.2969,548.9375 Q88.2969,549.4844 88.1719,549.6719 Q87.9063,550.0625 87.4531,550.0625 Q86.9844,550.0625 86.7188,549.6563 Q86.5938,549.4688 86.5938,548.7969 L85.1094,548.7969 Z " fill="#000000"/><text fill="#000000" font-family="sans-serif" font-size="14" lengthAdjust="spacing" textLength="46" x="106.75" y="553.7285">talleres</text><line style="stroke:#181818;stroke-width:0.5;" x1="8" x2="219" y1="564" y2="564"/><ellipse cx="18" cy="578.3047" fill="none" rx="3" ry="3" style="stroke:#038048;stroke-width:1.0;"/><text fill="#000000" font-family="sans-serif" font-size="14" lengthAdjust="spacing" textLength="41" x="27" y="582.5332">id : PK</text><text fill="#000000" font-family="sans-serif" font-size="14" lengthAdjust="spacing" textLength="120" x="27" y="600.1426">conference_id : FK</text><text fill="#000000" font-family="sans-serif" font-size="14" lengthAdjust="spacing" textLength="69" x="27" y="617.752">title : string</text><text fill="#000000" font-family="sans-serif" font-size="14" lengthAdjust="spacing" textLength="128" x="27" y="635.3613">start_time : datetime</text><text fill="#000000" font-family="sans-serif" font-size="14" lengthAdjust="spacing" textLength="124" x="27" y="652.9707">end_time : datetime</text><text fill="#000000" font-family="sans-serif" font-size="14" lengthAdjust="spacing" textLength="134" x="27" y="670.5801">created_at : datetime</text><text fill="#000000" font-family="sans-serif" font-size="14" lengthAdjust="spacing" textLength="138" x="27" y="688.1895">updated_at : datetime</text><line style="stroke:#181818;stroke-width:0.5;" x1="8" x2="219" y1="695.2656" y2="695.2656"/><text fill="#000000" font-family="sans-serif" font-size="14" lengthAdjust="spacing" textLength="201" x="13" y="713.7988">status : enum('Active', 'Inactive')</text><text fill="#000000" font-family="sans-serif" font-size="14" lengthAdjust="spacing" textLength="191" x="13" y="731.4082">duration : integer (en minutos)</text></g><!--class pagos--><g id="elem_pagos"><rect codeLine="54" fill="#F1F1F1" height="153.6563" id="pagos" rx="2.5" ry="2.5" style="stroke:#181818;stroke-width:0.5;" width="218" x="585.5" y="558"/><ellipse cx="670.75" cy="574" fill="#ADD1B2" rx="11" ry="11" style="stroke:#181818;stroke-width:1.0;"/><path d="M669.6094,574.7969 L669.6094,577.2969 L673.9375,577.2969 L673.9375,576.375 Q673.9375,575.7656 674.1719,575.5 Q674.4219,575.2344 674.7969,575.2344 Q675.1719,575.2344 675.4063,575.5 Q675.6406,575.7656 675.6406,576.375 L675.6406,579 L667.6406,579 Q667.0156,579 666.75,578.7656 Q666.5,578.5313 666.5,578.1406 Q666.5,577.7656 666.7656,577.5313 Q667.0313,577.2969 667.6406,577.2969 L667.9063,577.2969 L667.9063,570.6406 L667.6406,570.6406 Q667.0156,570.6406 666.75,570.4063 Q666.5,570.1719 666.5,569.7813 Q666.5,569.4063 666.75,569.1719 Q667.0156,568.9375 667.6406,568.9375 L675.2656,568.9375 L675.2656,571.5313 Q675.2656,572.1406 675.0313,572.4063 Q674.8125,572.6563 674.4219,572.6563 Q674.0469,572.6563 673.8125,572.4063 Q673.5781,572.1406 673.5781,571.5313 L673.5781,570.6406 L669.6094,570.6406 L669.6094,573.0938 L671.0938,573.0938 Q671.0938,572.4375 671.2188,572.25 Q671.4844,571.8438 671.9531,571.8438 Q672.3281,571.8438 672.5625,572.1094 Q672.7969,572.3594 672.7969,572.9688 L672.7969,574.9375 Q672.7969,575.4844 672.6719,575.6719 Q672.4063,576.0625 671.9531,576.0625 Q671.4844,576.0625 671.2188,575.6563 Q671.0938,575.4688 671.0938,574.7969 L669.6094,574.7969 Z " fill="#000000"/><text fill="#000000" font-family="sans-serif" font-size="14" lengthAdjust="spacing" textLength="39" x="691.25" y="579.7285">pagos</text><line style="stroke:#181818;stroke-width:0.5;" x1="586.5" x2="802.5" y1="590" y2="590"/><ellipse cx="596.5" cy="604.3047" fill="none" rx="3" ry="3" style="stroke:#038048;stroke-width:1.0;"/><text fill="#000000" font-family="sans-serif" font-size="14" lengthAdjust="spacing" textLength="41" x="605.5" y="608.5332">id : PK</text><text fill="#000000" font-family="sans-serif" font-size="14" lengthAdjust="spacing" textLength="93" x="605.5" y="626.1426">person_id : FK</text><text fill="#000000" font-family="sans-serif" font-size="14" lengthAdjust="spacing" textLength="107" x="605.5" y="643.752">amount : decimal</text><text fill="#000000" font-family="sans-serif" font-size="14" lengthAdjust="spacing" textLength="156" x="605.5" y="661.3613">payment_date : datetime</text><text fill="#000000" font-family="sans-serif" font-size="14" lengthAdjust="spacing" textLength="138" x="605.5" y="678.9707">updated_at : datetime</text><line style="stroke:#181818;stroke-width:0.5;" x1="586.5" x2="802.5" y1="686.0469" y2="686.0469"/><text fill="#000000" font-family="sans-serif" font-size="14" lengthAdjust="spacing" textLength="206" x="591.5" y="704.5801">status : enum('Paid', 'Cancelled')</text></g><!--class personas--><g id="elem_personas"><rect codeLine="63" fill="#F1F1F1" height="206.4844" id="personas" rx="2.5" ry="2.5" style="stroke:#181818;stroke-width:0.5;" width="199" x="590" y="7"/><ellipse cx="655.75" cy="23" fill="#ADD1B2" rx="11" ry="11" style="stroke:#181818;stroke-width:1.0;"/><path d="M654.6094,23.7969 L654.6094,26.2969 L658.9375,26.2969 L658.9375,25.375 Q658.9375,24.7656 659.1719,24.5 Q659.4219,24.2344 659.7969,24.2344 Q660.1719,24.2344 660.4063,24.5 Q660.6406,24.7656 660.6406,25.375 L660.6406,28 L652.6406,28 Q652.0156,28 651.75,27.7656 Q651.5,27.5313 651.5,27.1406 Q651.5,26.7656 651.7656,26.5313 Q652.0313,26.2969 652.6406,26.2969 L652.9063,26.2969 L652.9063,19.6406 L652.6406,19.6406 Q652.0156,19.6406 651.75,19.4063 Q651.5,19.1719 651.5,18.7813 Q651.5,18.4063 651.75,18.1719 Q652.0156,17.9375 652.6406,17.9375 L660.2656,17.9375 L660.2656,20.5313 Q660.2656,21.1406 660.0313,21.4063 Q659.8125,21.6563 659.4219,21.6563 Q659.0469,21.6563 658.8125,21.4063 Q658.5781,21.1406 658.5781,20.5313 L658.5781,19.6406 L654.6094,19.6406 L654.6094,22.0938 L656.0938,22.0938 Q656.0938,21.4375 656.2188,21.25 Q656.4844,20.8438 656.9531,20.8438 Q657.3281,20.8438 657.5625,21.1094 Q657.7969,21.3594 657.7969,21.9688 L657.7969,23.9375 Q657.7969,24.4844 657.6719,24.6719 Q657.4063,25.0625 656.9531,25.0625 Q656.4844,25.0625 656.2188,24.6563 Q656.0938,24.4688 656.0938,23.7969 L654.6094,23.7969 Z " fill="#000000"/><text fill="#000000" font-family="sans-serif" font-size="14" lengthAdjust="spacing" textLength="59" x="676.25" y="28.7285">personas</text><line style="stroke:#181818;stroke-width:0.5;" x1="591" x2="788" y1="39" y2="39"/><ellipse cx="601" cy="53.3047" fill="none" rx="3" ry="3" style="stroke:#038048;stroke-width:1.0;"/><text fill="#000000" font-family="sans-serif" font-size="14" lengthAdjust="spacing" textLength="41" x="610" y="57.5332">id : PK</text><text fill="#000000" font-family="sans-serif" font-size="14" lengthAdjust="spacing" textLength="66" x="610" y="75.1426">dni : string</text><text fill="#000000" font-family="sans-serif" font-size="14" lengthAdjust="spacing" textLength="106" x="610" y="92.752">firstName : string</text><text fill="#000000" font-family="sans-serif" font-size="14" lengthAdjust="spacing" textLength="105" x="610" y="110.3613">lastName : string</text><text fill="#000000" font-family="sans-serif" font-size="14" lengthAdjust="spacing" textLength="80" x="610" y="127.9707">email : string</text><text fill="#000000" font-family="sans-serif" font-size="14" lengthAdjust="spacing" textLength="136" x="610" y="145.5801">phoneNumber : string</text><text fill="#000000" font-family="sans-serif" font-size="14" lengthAdjust="spacing" textLength="124" x="610" y="163.1895">birthDate : datetime</text><text fill="#000000" font-family="sans-serif" font-size="14" lengthAdjust="spacing" textLength="173" x="610" y="180.7988">registration_date : datetime</text><text fill="#000000" font-family="sans-serif" font-size="14" lengthAdjust="spacing" textLength="138" x="610" y="198.4082">updated_at : datetime</text><line style="stroke:#181818;stroke-width:0.5;" x1="591" x2="788" y1="205.4844" y2="205.4844"/></g><!--link conferencias to inscripciones--><g id="link_conferencias_inscripciones"><path codeLine="76" d="M459.6928,194.1851 C477.0728,226.9051 485.1464,242.1033 502.5364,274.8433 " fill="none" id="conferencias-inscripciones" style="stroke:#181818;stroke-width:1.0;"/><line style="stroke:#181818;stroke-width:1.0;" x1="454.2838" x2="461.349" y1="192.529" y2="188.7762"/><line style="stroke:#181818;stroke-width:1.0;" x1="455.6911" x2="462.7563" y1="195.1784" y2="191.4256"/><line style="stroke:#181818;stroke-width:1.0;" x1="459.6928" x2="455.94" y1="194.1851" y2="187.12"/><line style="stroke:#181818;stroke-width:1.0;" x1="507.2273" x2="516.2789" y1="283.6748" y2="287.9255"/><line style="stroke:#181818;stroke-width:1.0;" x1="507.2273" x2="505.6811" y1="283.6748" y2="293.5545"/><line style="stroke:#181818;stroke-width:1.0;" x1="507.2273" x2="510.98" y1="283.6748" y2="290.74"/><ellipse cx="504.4127" cy="278.3759" fill="none" rx="4" ry="4" style="stroke:#181818;stroke-width:1.0;"/><text fill="#000000" font-family="sans-serif" font-size="13" lengthAdjust="spacing" textLength="43" x="492.5" y="257.4951">registra</text></g><!--link conferencias to cronograma--><g id="link_conferencias_cronograma"><path codeLine="77" d="M384.4672,194.6204 C372.3272,227.3404 367.2126,241.1246 355.0626,273.8646 " fill="none" id="conferencias-cronograma" style="stroke:#181818;stroke-width:1.0;"/><line style="stroke:#181818;stroke-width:1.0;" x1="382.1084" x2="389.6088" y1="189.4788" y2="192.2616"/><line style="stroke:#181818;stroke-width:1.0;" x1="381.0648" x2="388.5652" y1="192.2914" y2="195.0743"/><line style="stroke:#181818;stroke-width:1.0;" x1="384.4672" x2="387.25" y1="194.6204" y2="187.12"/><line style="stroke:#181818;stroke-width:1.0;" x1="351.5834" x2="354.4251" y1="283.2398" y2="292.8275"/><line style="stroke:#181818;stroke-width:1.0;" x1="351.5834" x2="343.1749" y1="283.2398" y2="288.6525"/><line style="stroke:#181818;stroke-width:1.0;" x1="351.5834" x2="348.8" y1="283.2398" y2="290.74"/><ellipse cx="353.6709" cy="277.6147" fill="none" rx="4" ry="4" style="stroke:#181818;stroke-width:1.0;"/><text fill="#000000" font-family="sans-serif" font-size="13" lengthAdjust="spacing" textLength="34" x="365.5" y="257.4951">define</text></g><!--link personas to inscripciones--><g id="link_personas_inscripciones"><path codeLine="78" d="M630.5654,220.3228 C616.6054,246.2328 614.1931,250.7165 601.0631,275.0665 " fill="none" id="personas-inscripciones" style="stroke:#181818;stroke-width:1.0;"/><line style="stroke:#181818;stroke-width:1.0;" x1="628.9413" x2="635.9841" y1="214.9041" y2="218.6987"/><line style="stroke:#181818;stroke-width:1.0;" x1="627.5183" x2="634.5611" y1="217.5452" y2="221.3397"/><line style="stroke:#181818;stroke-width:1.0;" x1="630.5654" x2="634.36" y1="220.3228" y2="213.28"/><line style="stroke:#181818;stroke-width:1.0;" x1="596.3169" x2="597.8012" y1="283.8685" y2="293.7577"/><line style="stroke:#181818;stroke-width:1.0;" x1="596.3169" x2="587.2388" y1="283.8685" y2="288.0623"/><line style="stroke:#181818;stroke-width:1.0;" x1="596.3169" x2="592.52" y1="283.8685" y2="290.91"/><ellipse cx="599.1646" cy="278.5873" fill="none" rx="4" ry="4" style="stroke:#181818;stroke-width:1.0;"/><text fill="#000000" font-family="sans-serif" font-size="13" lengthAdjust="spacing" textLength="81" x="616.5" y="257.4951">se inscribe en</text></g><!--link personas to pagos--><g id="link_personas_pagos"><path codeLine="79" d="M704.787,221.1592 C705.807,231.2192 705.88,233.32 706.5,243 C713.51,352.29 708.2595,461.0792 702.4195,539.9292 " fill="none" id="personas-pagos" style="stroke:#181818;stroke-width:1.0;"/><line style="stroke:#181818;stroke-width:1.0;" x1="700.4039" x2="708.3631" y1="217.5831" y2="216.7761"/><line style="stroke:#181818;stroke-width:1.0;" x1="700.7065" x2="708.6657" y1="220.5678" y2="219.7608"/><line style="stroke:#181818;stroke-width:1.0;" x1="704.787" x2="703.98" y1="221.1592" y2="213.2"/><line style="stroke:#181818;stroke-width:1.0;" x1="701.6809" x2="707.0736" y1="549.9019" y2="558.3232"/><line style="stroke:#181818;stroke-width:1.0;" x1="701.6809" x2="695.1064" y1="549.9019" y2="557.4368"/><line style="stroke:#181818;stroke-width:1.0;" x1="701.6809" x2="701.09" y1="549.9019" y2="557.88"/><ellipse cx="702.1241" cy="543.9182" fill="none" rx="4" ry="4" style="stroke:#181818;stroke-width:1.0;"/><text fill="#000000" font-family="sans-serif" font-size="13" lengthAdjust="spacing" textLength="38" x="710.5" y="373.4951">realiza</text></g><!--link inscripciones to pagos--><g id="link_inscripciones_pagos"><path codeLine="80" d="M596.4692,452.3303 C615.5292,487.6503 630.5215,515.4393 649.5715,550.7493 " fill="none" id="inscripciones-pagos" style="stroke:#181818;stroke-width:1.0;"/><line style="stroke:#181818;stroke-width:1.0;" x1="591.0495" x2="598.0898" y1="450.7098" y2="446.9105"/><line style="stroke:#181818;stroke-width:1.0;" x1="592.4742" x2="599.5145" y1="453.3499" y2="449.5507"/><line style="stroke:#181818;stroke-width:1.0;" x1="596.4692" x2="592.67" y1="452.3303" y2="445.29"/><line style="stroke:#181818;stroke-width:1.0;" x1="654.9911" x2="647.9504" y1="552.3704" y2="556.1689"/><line style="stroke:#181818;stroke-width:1.0;" x1="653.5667" x2="646.526" y1="549.7301" y2="553.5286"/><line style="stroke:#181818;stroke-width:1.0;" x1="649.5715" x2="653.37" y1="550.7493" y2="557.79"/><text fill="#000000" font-family="sans-serif" font-size="13" lengthAdjust="spacing" textLength="39" x="614.5" y="489.4951">verifica</text></g><!--link cronograma to ponencias--><g id="link_cronograma_ponencias"><path codeLine="81" d="M333.5238,453.1958 C337.2638,477.3558 337.4956,478.882 341.5356,504.972 " fill="none" id="cronograma-ponencias" style="stroke:#181818;stroke-width:1.0;"/><line style="stroke:#181818;stroke-width:1.0;" x1="328.959" x2="336.8648" y1="449.8548" y2="448.631"/><line style="stroke:#181818;stroke-width:1.0;" x1="329.4179" x2="337.3238" y1="452.8195" y2="451.5957"/><line style="stroke:#181818;stroke-width:1.0;" x1="333.5238" x2="332.3" y1="453.1958" y2="445.29"/><line style="stroke:#181818;stroke-width:1.0;" x1="343.0658" x2="350.2193" y1="514.8542" y2="521.8419"/><line style="stroke:#181818;stroke-width:1.0;" x1="343.0658" x2="338.3607" y1="514.8542" y2="523.6781"/><line style="stroke:#181818;stroke-width:1.0;" x1="343.0658" x2="344.29" y1="514.8542" y2="522.76"/><ellipse cx="342.1477" cy="508.9249" fill="none" rx="4" ry="4" style="stroke:#181818;stroke-width:1.0;"/><text fill="#000000" font-family="sans-serif" font-size="13" lengthAdjust="spacing" textLength="41" x="339.5" y="489.4951">incluye</text></g><!--link cronograma to talleres--><g id="link_cronograma_talleres"><path codeLine="82" d="M255.9753,451.5946 C234.9553,478.5046 226.9793,488.7238 204.5493,517.4438 " fill="none" id="cronograma-talleres" style="stroke:#181818;stroke-width:1.0;"/><line style="stroke:#181818;stroke-width:1.0;" x1="255.2854" x2="261.59" y1="445.98" y2="450.9046"/><line style="stroke:#181818;stroke-width:1.0;" x1="253.4386" x2="259.7432" y1="448.3442" y2="453.2688"/><line style="stroke:#181818;stroke-width:1.0;" x1="255.9753" x2="260.9" y1="451.5946" y2="445.29"/><line style="stroke:#181818;stroke-width:1.0;" x1="198.3941" x2="198.1987" y1="525.325" y2="535.3231"/><line style="stroke:#181818;stroke-width:1.0;" x1="198.3941" x2="188.7413" y1="525.325" y2="527.9369"/><line style="stroke:#181818;stroke-width:1.0;" x1="198.3941" x2="193.47" y1="525.325" y2="531.63"/><ellipse cx="202.0872" cy="520.5963" fill="none" rx="4" ry="4" style="stroke:#181818;stroke-width:1.0;"/><text fill="#000000" font-family="sans-serif" font-size="13" lengthAdjust="spacing" textLength="41" x="236.5" y="489.4951">incluye</text></g><!--SRC=[rLJDJiCm3BxtAQ9TjWbu0Mu8X8IG4E859Y_nEgF4gP8KQJ3U7JVTNqTss3ZHKsf_iR_FZesSAAsKzhp0WAm9elggb7nNPDIjUdtEFmAoAByn1U8wcmn67QX9v7deY0bI6yM6tBh9-4ud-i3njHe_CVJdQSRfW93Gp209riWnaSFiQHjJy7nN5VPiYNDgBQcnI7Sd1sVP_DYR6mpHyy1qakmzo6rhqMpO1gn9H4AdTzPnEfTq8sHFrlS4uKBPcu1H8c8GSwy7vCfPXJTjBqEG995gYJL1LewuJJvEjx52cdKIZdKYcwBzydRguDdN0HoSKPfI2x9AIeHT4TwbD7yaba0UGC0_Tko_jgM1sXUb5yO8d6yvnq5D3cn9-2kGAKrM0oidAIyRgdu2YZGDqx0H2menlO0xwe-5aXKTa3qQlQMCy4lhvddu3Xnp2cdvKA1_-T8OgpUqiDbm8ZPWnxCxaG5PlTLWOw_NDpV-wsWltghHDl-e23-OEy4QN13ZgDgLz5JGY1lR78NFxmlzkydPmTAd91-6w63hzHxsWO4Mf3kIUqBRMBkbAK1YRTiLbd2xIJs4_G00]--></g></svg>