<?xml version="1.0" encoding="us-ascii" standalone="no"?><svg xmlns="http://www.w3.org/2000/svg" xmlns:xlink="http://www.w3.org/1999/xlink" contentStyleType="text/css" height="434px" preserveAspectRatio="none" style="width:1191px;height:434px;background:#FFFFFF;" version="1.1" viewBox="0 0 1191 434" width="1191px" zoomAndPan="magnify"><defs/><g><!--class conferencias--><g id="elem_conferencias"><rect codeLine="2" fill="#F1F1F1" height="153.6563" id="conferencias" rx="2.5" ry="2.5" style="stroke:#181818;stroke-width:0.5;" width="213" x="330.5" y="7"/><ellipse cx="392.25" cy="23" fill="#ADD1B2" rx="11" ry="11" style="stroke:#181818;stroke-width:1.0;"/><path d="M391.1094,23.7969 L391.1094,26.2969 L395.4375,26.2969 L395.4375,25.375 Q395.4375,24.7656 395.6719,24.5 Q395.9219,24.2344 396.2969,24.2344 Q396.6719,24.2344 396.9063,24.5 Q397.1406,24.7656 397.1406,25.375 L397.1406,28 L389.1406,28 Q388.5156,28 388.25,27.7656 Q388,27.5313 388,27.1406 Q388,26.7656 388.2656,26.5313 Q388.5313,26.2969 389.1406,26.2969 L389.4063,26.2969 L389.4063,19.6406 L389.1406,19.6406 Q388.5156,19.6406 388.25,19.4063 Q388,19.1719 388,18.7813 Q388,18.4063 388.25,18.1719 Q388.5156,17.9375 389.1406,17.9375 L396.7656,17.9375 L396.7656,20.5313 Q396.7656,21.1406 396.5313,21.4063 Q396.3125,21.6563 395.9219,21.6563 Q395.5469,21.6563 395.3125,21.4063 Q395.0781,21.1406 395.0781,20.5313 L395.0781,19.6406 L391.1094,19.6406 L391.1094,22.0938 L392.5938,22.0938 Q392.5938,21.4375 392.7188,21.25 Q392.9844,20.8438 393.4531,20.8438 Q393.8281,20.8438 394.0625,21.1094 Q394.2969,21.3594 394.2969,21.9688 L394.2969,23.9375 Q394.2969,24.4844 394.1719,24.6719 Q393.9063,25.0625 393.4531,25.0625 Q392.9844,25.0625 392.7188,24.6563 Q392.5938,24.4688 392.5938,23.7969 L391.1094,23.7969 Z " fill="#000000"/><text fill="#000000" font-family="sans-serif" font-size="14" lengthAdjust="spacing" textLength="81" x="412.75" y="28.7285">conferencias</text><line style="stroke:#181818;stroke-width:0.5;" x1="331.5" x2="542.5" y1="39" y2="39"/><ellipse cx="341.5" cy="53.3047" fill="none" rx="3" ry="3" style="stroke:#038048;stroke-width:1.0;"/><text fill="#000000" font-family="sans-serif" font-size="14" lengthAdjust="spacing" textLength="41" x="350.5" y="57.5332">id : PK</text><text fill="#000000" font-family="sans-serif" font-size="14" lengthAdjust="spacing" textLength="69" x="350.5" y="75.1426">title : string</text><text fill="#000000" font-family="sans-serif" font-size="14" lengthAdjust="spacing" textLength="116" x="350.5" y="92.752">description : string</text><text fill="#000000" font-family="sans-serif" font-size="14" lengthAdjust="spacing" textLength="134" x="350.5" y="110.3613">created_at : datetime</text><text fill="#000000" font-family="sans-serif" font-size="14" lengthAdjust="spacing" textLength="138" x="350.5" y="127.9707">updated_at : datetime</text><line style="stroke:#181818;stroke-width:0.5;" x1="331.5" x2="542.5" y1="135.0469" y2="135.0469"/><text fill="#000000" font-family="sans-serif" font-size="14" lengthAdjust="spacing" textLength="201" x="336.5" y="153.5801">status : enum('Active', 'Inactive')</text></g><!--class inscripciones--><g id="elem_inscripciones"><rect codeLine="11" fill="#F1F1F1" height="153.6563" id="inscripciones" rx="2.5" ry="2.5" style="stroke:#181818;stroke-width:0.5;" width="228" x="703" y="256.5"/><ellipse cx="771.75" cy="272.5" fill="#ADD1B2" rx="11" ry="11" style="stroke:#181818;stroke-width:1.0;"/><path d="M770.6094,273.2969 L770.6094,275.7969 L774.9375,275.7969 L774.9375,274.875 Q774.9375,274.2656 775.1719,274 Q775.4219,273.7344 775.7969,273.7344 Q776.1719,273.7344 776.4063,274 Q776.6406,274.2656 776.6406,274.875 L776.6406,277.5 L768.6406,277.5 Q768.0156,277.5 767.75,277.2656 Q767.5,277.0313 767.5,276.6406 Q767.5,276.2656 767.7656,276.0313 Q768.0313,275.7969 768.6406,275.7969 L768.9063,275.7969 L768.9063,269.1406 L768.6406,269.1406 Q768.0156,269.1406 767.75,268.9063 Q767.5,268.6719 767.5,268.2813 Q767.5,267.9063 767.75,267.6719 Q768.0156,267.4375 768.6406,267.4375 L776.2656,267.4375 L776.2656,270.0313 Q776.2656,270.6406 776.0313,270.9063 Q775.8125,271.1563 775.4219,271.1563 Q775.0469,271.1563 774.8125,270.9063 Q774.5781,270.6406 774.5781,270.0313 L774.5781,269.1406 L770.6094,269.1406 L770.6094,271.5938 L772.0938,271.5938 Q772.0938,270.9375 772.2188,270.75 Q772.4844,270.3438 772.9531,270.3438 Q773.3281,270.3438 773.5625,270.6094 Q773.7969,270.8594 773.7969,271.4688 L773.7969,273.4375 Q773.7969,273.9844 773.6719,274.1719 Q773.4063,274.5625 772.9531,274.5625 Q772.4844,274.5625 772.2188,274.1563 Q772.0938,273.9688 772.0938,273.2969 L770.6094,273.2969 Z " fill="#000000"/><text fill="#000000" font-family="sans-serif" font-size="14" lengthAdjust="spacing" textLength="82" x="792.25" y="278.2285">inscripciones</text><line style="stroke:#181818;stroke-width:0.5;" x1="704" x2="930" y1="288.5" y2="288.5"/><ellipse cx="714" cy="302.8047" fill="none" rx="3" ry="3" style="stroke:#038048;stroke-width:1.0;"/><text fill="#000000" font-family="sans-serif" font-size="14" lengthAdjust="spacing" textLength="41" x="723" y="307.0332">id : PK</text><text fill="#000000" font-family="sans-serif" font-size="14" lengthAdjust="spacing" textLength="120" x="723" y="324.6426">conference_id : FK</text><text fill="#000000" font-family="sans-serif" font-size="14" lengthAdjust="spacing" textLength="93" x="723" y="342.252">person_id : FK</text><text fill="#000000" font-family="sans-serif" font-size="14" lengthAdjust="spacing" textLength="173" x="723" y="359.8613">registration_date : datetime</text><text fill="#000000" font-family="sans-serif" font-size="14" lengthAdjust="spacing" textLength="138" x="723" y="377.4707">updated_at : datetime</text><line style="stroke:#181818;stroke-width:0.5;" x1="704" x2="930" y1="384.5469" y2="384.5469"/><text fill="#000000" font-family="sans-serif" font-size="14" lengthAdjust="spacing" textLength="216" x="709" y="403.0801">status : enum('Active', 'Cancelled')</text></g><!--class ponencias--><g id="elem_ponencias"><rect codeLine="20" fill="#F1F1F1" height="171.2656" id="ponencias" rx="2.5" ry="2.5" style="stroke:#181818;stroke-width:0.5;" width="213" x="454.5" y="248"/><ellipse cx="524.25" cy="264" fill="#ADD1B2" rx="11" ry="11" style="stroke:#181818;stroke-width:1.0;"/><path d="M523.1094,264.7969 L523.1094,267.2969 L527.4375,267.2969 L527.4375,266.375 Q527.4375,265.7656 527.6719,265.5 Q527.9219,265.2344 528.2969,265.2344 Q528.6719,265.2344 528.9063,265.5 Q529.1406,265.7656 529.1406,266.375 L529.1406,269 L521.1406,269 Q520.5156,269 520.25,268.7656 Q520,268.5313 520,268.1406 Q520,267.7656 520.2656,267.5313 Q520.5313,267.2969 521.1406,267.2969 L521.4063,267.2969 L521.4063,260.6406 L521.1406,260.6406 Q520.5156,260.6406 520.25,260.4063 Q520,260.1719 520,259.7813 Q520,259.4063 520.25,259.1719 Q520.5156,258.9375 521.1406,258.9375 L528.7656,258.9375 L528.7656,261.5313 Q528.7656,262.1406 528.5313,262.4063 Q528.3125,262.6563 527.9219,262.6563 Q527.5469,262.6563 527.3125,262.4063 Q527.0781,262.1406 527.0781,261.5313 L527.0781,260.6406 L523.1094,260.6406 L523.1094,263.0938 L524.5938,263.0938 Q524.5938,262.4375 524.7188,262.25 Q524.9844,261.8438 525.4531,261.8438 Q525.8281,261.8438 526.0625,262.1094 Q526.2969,262.3594 526.2969,262.9688 L526.2969,264.9375 Q526.2969,265.4844 526.1719,265.6719 Q525.9063,266.0625 525.4531,266.0625 Q524.9844,266.0625 524.7188,265.6563 Q524.5938,265.4688 524.5938,264.7969 L523.1094,264.7969 Z " fill="#000000"/><text fill="#000000" font-family="sans-serif" font-size="14" lengthAdjust="spacing" textLength="65" x="544.75" y="269.7285">ponencias</text><line style="stroke:#181818;stroke-width:0.5;" x1="455.5" x2="666.5" y1="280" y2="280"/><ellipse cx="465.5" cy="294.3047" fill="none" rx="3" ry="3" style="stroke:#038048;stroke-width:1.0;"/><text fill="#000000" font-family="sans-serif" font-size="14" lengthAdjust="spacing" textLength="41" x="474.5" y="298.5332">id : PK</text><text fill="#000000" font-family="sans-serif" font-size="14" lengthAdjust="spacing" textLength="120" x="474.5" y="316.1426">conference_id : FK</text><text fill="#000000" font-family="sans-serif" font-size="14" lengthAdjust="spacing" textLength="69" x="474.5" y="333.752">title : string</text><text fill="#000000" font-family="sans-serif" font-size="14" lengthAdjust="spacing" textLength="108" x="474.5" y="351.3613">presenter : string</text><text fill="#000000" font-family="sans-serif" font-size="14" lengthAdjust="spacing" textLength="134" x="474.5" y="368.9707">created_at : datetime</text><text fill="#000000" font-family="sans-serif" font-size="14" lengthAdjust="spacing" textLength="138" x="474.5" y="386.5801">updated_at : datetime</text><line style="stroke:#181818;stroke-width:0.5;" x1="455.5" x2="666.5" y1="393.6563" y2="393.6563"/><text fill="#000000" font-family="sans-serif" font-size="14" lengthAdjust="spacing" textLength="201" x="460.5" y="412.1895">status : enum('Active', 'Inactive')</text></g><!--class cronograma--><g id="elem_cronograma"><rect codeLine="30" fill="#F1F1F1" height="188.875" id="cronograma" rx="2.5" ry="2.5" style="stroke:#181818;stroke-width:0.5;" width="164" x="7" y="239"/><ellipse cx="47.2" cy="255" fill="#ADD1B2" rx="11" ry="11" style="stroke:#181818;stroke-width:1.0;"/><path d="M46.0594,255.7969 L46.0594,258.2969 L50.3875,258.2969 L50.3875,257.375 Q50.3875,256.7656 50.6219,256.5 Q50.8719,256.2344 51.2469,256.2344 Q51.6219,256.2344 51.8563,256.5 Q52.0906,256.7656 52.0906,257.375 L52.0906,260 L44.0906,260 Q43.4656,260 43.2,259.7656 Q42.95,259.5313 42.95,259.1406 Q42.95,258.7656 43.2156,258.5313 Q43.4813,258.2969 44.0906,258.2969 L44.3563,258.2969 L44.3563,251.6406 L44.0906,251.6406 Q43.4656,251.6406 43.2,251.4063 Q42.95,251.1719 42.95,250.7813 Q42.95,250.4063 43.2,250.1719 Q43.4656,249.9375 44.0906,249.9375 L51.7156,249.9375 L51.7156,252.5313 Q51.7156,253.1406 51.4813,253.4063 Q51.2625,253.6563 50.8719,253.6563 Q50.4969,253.6563 50.2625,253.4063 Q50.0281,253.1406 50.0281,252.5313 L50.0281,251.6406 L46.0594,251.6406 L46.0594,254.0938 L47.5438,254.0938 Q47.5438,253.4375 47.6688,253.25 Q47.9344,252.8438 48.4031,252.8438 Q48.7781,252.8438 49.0125,253.1094 Q49.2469,253.3594 49.2469,253.9688 L49.2469,255.9375 Q49.2469,256.4844 49.1219,256.6719 Q48.8563,257.0625 48.4031,257.0625 Q47.9344,257.0625 47.6688,256.6563 Q47.5438,256.4688 47.5438,255.7969 L46.0594,255.7969 Z " fill="#000000"/><text fill="#000000" font-family="sans-serif" font-size="14" lengthAdjust="spacing" textLength="76" x="66.8" y="260.7285">cronograma</text><line style="stroke:#181818;stroke-width:0.5;" x1="8" x2="170" y1="271" y2="271"/><ellipse cx="18" cy="285.3047" fill="none" rx="3" ry="3" style="stroke:#038048;stroke-width:1.0;"/><text fill="#000000" font-family="sans-serif" font-size="14" lengthAdjust="spacing" textLength="41" x="27" y="289.5332">id : PK</text><text fill="#000000" font-family="sans-serif" font-size="14" lengthAdjust="spacing" textLength="120" x="27" y="307.1426">conference_id : FK</text><text fill="#000000" font-family="sans-serif" font-size="14" lengthAdjust="spacing" textLength="125" x="27" y="324.752">session_title : string</text><text fill="#000000" font-family="sans-serif" font-size="14" lengthAdjust="spacing" textLength="128" x="27" y="342.3613">start_time : datetime</text><text fill="#000000" font-family="sans-serif" font-size="14" lengthAdjust="spacing" textLength="124" x="27" y="359.9707">end_time : datetime</text><text fill="#000000" font-family="sans-serif" font-size="14" lengthAdjust="spacing" textLength="96" x="27" y="377.5801">location : string</text><text fill="#000000" font-family="sans-serif" font-size="14" lengthAdjust="spacing" textLength="134" x="27" y="395.1895">created_at : datetime</text><text fill="#000000" font-family="sans-serif" font-size="14" lengthAdjust="spacing" textLength="138" x="27" y="412.7988">updated_at : datetime</text><line style="stroke:#181818;stroke-width:0.5;" x1="8" x2="170" y1="419.875" y2="419.875"/></g><!--class talleres--><g id="elem_talleres"><rect codeLine="41" fill="#F1F1F1" height="153.6563" id="talleres" rx="2.5" ry="2.5" style="stroke:#181818;stroke-width:0.5;" width="213" x="206.5" y="256.5"/><ellipse cx="285.75" cy="272.5" fill="#ADD1B2" rx="11" ry="11" style="stroke:#181818;stroke-width:1.0;"/><path d="M284.6094,273.2969 L284.6094,275.7969 L288.9375,275.7969 L288.9375,274.875 Q288.9375,274.2656 289.1719,274 Q289.4219,273.7344 289.7969,273.7344 Q290.1719,273.7344 290.4063,274 Q290.6406,274.2656 290.6406,274.875 L290.6406,277.5 L282.6406,277.5 Q282.0156,277.5 281.75,277.2656 Q281.5,277.0313 281.5,276.6406 Q281.5,276.2656 281.7656,276.0313 Q282.0313,275.7969 282.6406,275.7969 L282.9063,275.7969 L282.9063,269.1406 L282.6406,269.1406 Q282.0156,269.1406 281.75,268.9063 Q281.5,268.6719 281.5,268.2813 Q281.5,267.9063 281.75,267.6719 Q282.0156,267.4375 282.6406,267.4375 L290.2656,267.4375 L290.2656,270.0313 Q290.2656,270.6406 290.0313,270.9063 Q289.8125,271.1563 289.4219,271.1563 Q289.0469,271.1563 288.8125,270.9063 Q288.5781,270.6406 288.5781,270.0313 L288.5781,269.1406 L284.6094,269.1406 L284.6094,271.5938 L286.0938,271.5938 Q286.0938,270.9375 286.2188,270.75 Q286.4844,270.3438 286.9531,270.3438 Q287.3281,270.3438 287.5625,270.6094 Q287.7969,270.8594 287.7969,271.4688 L287.7969,273.4375 Q287.7969,273.9844 287.6719,274.1719 Q287.4063,274.5625 286.9531,274.5625 Q286.4844,274.5625 286.2188,274.1563 Q286.0938,273.9688 286.0938,273.2969 L284.6094,273.2969 Z " fill="#000000"/><text fill="#000000" font-family="sans-serif" font-size="14" lengthAdjust="spacing" textLength="46" x="306.25" y="278.2285">talleres</text><line style="stroke:#181818;stroke-width:0.5;" x1="207.5" x2="418.5" y1="288.5" y2="288.5"/><ellipse cx="217.5" cy="302.8047" fill="none" rx="3" ry="3" style="stroke:#038048;stroke-width:1.0;"/><text fill="#000000" font-family="sans-serif" font-size="14" lengthAdjust="spacing" textLength="41" x="226.5" y="307.0332">id : PK</text><text fill="#000000" font-family="sans-serif" font-size="14" lengthAdjust="spacing" textLength="120" x="226.5" y="324.6426">conference_id : FK</text><text fill="#000000" font-family="sans-serif" font-size="14" lengthAdjust="spacing" textLength="69" x="226.5" y="342.252">title : string</text><text fill="#000000" font-family="sans-serif" font-size="14" lengthAdjust="spacing" textLength="134" x="226.5" y="359.8613">created_at : datetime</text><text fill="#000000" font-family="sans-serif" font-size="14" lengthAdjust="spacing" textLength="138" x="226.5" y="377.4707">updated_at : datetime</text><line style="stroke:#181818;stroke-width:0.5;" x1="207.5" x2="418.5" y1="384.5469" y2="384.5469"/><text fill="#000000" font-family="sans-serif" font-size="14" lengthAdjust="spacing" textLength="201" x="212.5" y="403.0801">status : enum('Active', 'Inactive')</text></g><!--class pagos--><g id="elem_pagos"><rect codeLine="50" fill="#F1F1F1" height="153.6563" id="pagos" rx="2.5" ry="2.5" style="stroke:#181818;stroke-width:0.5;" width="218" x="966" y="256.5"/><ellipse cx="1051.25" cy="272.5" fill="#ADD1B2" rx="11" ry="11" style="stroke:#181818;stroke-width:1.0;"/><path d="M1050.1094,273.2969 L1050.1094,275.7969 L1054.4375,275.7969 L1054.4375,274.875 Q1054.4375,274.2656 1054.6719,274 Q1054.9219,273.7344 1055.2969,273.7344 Q1055.6719,273.7344 1055.9063,274 Q1056.1406,274.2656 1056.1406,274.875 L1056.1406,277.5 L1048.1406,277.5 Q1047.5156,277.5 1047.25,277.2656 Q1047,277.0313 1047,276.6406 Q1047,276.2656 1047.2656,276.0313 Q1047.5313,275.7969 1048.1406,275.7969 L1048.4063,275.7969 L1048.4063,269.1406 L1048.1406,269.1406 Q1047.5156,269.1406 1047.25,268.9063 Q1047,268.6719 1047,268.2813 Q1047,267.9063 1047.25,267.6719 Q1047.5156,267.4375 1048.1406,267.4375 L1055.7656,267.4375 L1055.7656,270.0313 Q1055.7656,270.6406 1055.5313,270.9063 Q1055.3125,271.1563 1054.9219,271.1563 Q1054.5469,271.1563 1054.3125,270.9063 Q1054.0781,270.6406 1054.0781,270.0313 L1054.0781,269.1406 L1050.1094,269.1406 L1050.1094,271.5938 L1051.5938,271.5938 Q1051.5938,270.9375 1051.7188,270.75 Q1051.9844,270.3438 1052.4531,270.3438 Q1052.8281,270.3438 1053.0625,270.6094 Q1053.2969,270.8594 1053.2969,271.4688 L1053.2969,273.4375 Q1053.2969,273.9844 1053.1719,274.1719 Q1052.9063,274.5625 1052.4531,274.5625 Q1051.9844,274.5625 1051.7188,274.1563 Q1051.5938,273.9688 1051.5938,273.2969 L1050.1094,273.2969 Z " fill="#000000"/><text fill="#000000" font-family="sans-serif" font-size="14" lengthAdjust="spacing" textLength="39" x="1071.75" y="278.2285">pagos</text><line style="stroke:#181818;stroke-width:0.5;" x1="967" x2="1183" y1="288.5" y2="288.5"/><ellipse cx="977" cy="302.8047" fill="none" rx="3" ry="3" style="stroke:#038048;stroke-width:1.0;"/><text fill="#000000" font-family="sans-serif" font-size="14" lengthAdjust="spacing" textLength="41" x="986" y="307.0332">id : PK</text><text fill="#000000" font-family="sans-serif" font-size="14" lengthAdjust="spacing" textLength="93" x="986" y="324.6426">person_id : FK</text><text fill="#000000" font-family="sans-serif" font-size="14" lengthAdjust="spacing" textLength="107" x="986" y="342.252">amount : decimal</text><text fill="#000000" font-family="sans-serif" font-size="14" lengthAdjust="spacing" textLength="156" x="986" y="359.8613">payment_date : datetime</text><text fill="#000000" font-family="sans-serif" font-size="14" lengthAdjust="spacing" textLength="138" x="986" y="377.4707">updated_at : datetime</text><line style="stroke:#181818;stroke-width:0.5;" x1="967" x2="1183" y1="384.5469" y2="384.5469"/><text fill="#000000" font-family="sans-serif" font-size="14" lengthAdjust="spacing" textLength="206" x="972" y="403.0801">status : enum('Paid', 'Cancelled')</text></g><!--class personas--><g id="elem_personas"><rect codeLine="59" fill="#F1F1F1" height="153.6563" id="personas" rx="2.5" ry="2.5" style="stroke:#181818;stroke-width:0.5;" width="199" x="879.5" y="7"/><ellipse cx="945.25" cy="23" fill="#ADD1B2" rx="11" ry="11" style="stroke:#181818;stroke-width:1.0;"/><path d="M944.1094,23.7969 L944.1094,26.2969 L948.4375,26.2969 L948.4375,25.375 Q948.4375,24.7656 948.6719,24.5 Q948.9219,24.2344 949.2969,24.2344 Q949.6719,24.2344 949.9063,24.5 Q950.1406,24.7656 950.1406,25.375 L950.1406,28 L942.1406,28 Q941.5156,28 941.25,27.7656 Q941,27.5313 941,27.1406 Q941,26.7656 941.2656,26.5313 Q941.5313,26.2969 942.1406,26.2969 L942.4063,26.2969 L942.4063,19.6406 L942.1406,19.6406 Q941.5156,19.6406 941.25,19.4063 Q941,19.1719 941,18.7813 Q941,18.4063 941.25,18.1719 Q941.5156,17.9375 942.1406,17.9375 L949.7656,17.9375 L949.7656,20.5313 Q949.7656,21.1406 949.5313,21.4063 Q949.3125,21.6563 948.9219,21.6563 Q948.5469,21.6563 948.3125,21.4063 Q948.0781,21.1406 948.0781,20.5313 L948.0781,19.6406 L944.1094,19.6406 L944.1094,22.0938 L945.5938,22.0938 Q945.5938,21.4375 945.7188,21.25 Q945.9844,20.8438 946.4531,20.8438 Q946.8281,20.8438 947.0625,21.1094 Q947.2969,21.3594 947.2969,21.9688 L947.2969,23.9375 Q947.2969,24.4844 947.1719,24.6719 Q946.9063,25.0625 946.4531,25.0625 Q945.9844,25.0625 945.7188,24.6563 Q945.5938,24.4688 945.5938,23.7969 L944.1094,23.7969 Z " fill="#000000"/><text fill="#000000" font-family="sans-serif" font-size="14" lengthAdjust="spacing" textLength="59" x="965.75" y="28.7285">personas</text><line style="stroke:#181818;stroke-width:0.5;" x1="880.5" x2="1077.5" y1="39" y2="39"/><ellipse cx="890.5" cy="53.3047" fill="none" rx="3" ry="3" style="stroke:#038048;stroke-width:1.0;"/><text fill="#000000" font-family="sans-serif" font-size="14" lengthAdjust="spacing" textLength="41" x="899.5" y="57.5332">id : PK</text><text fill="#000000" font-family="sans-serif" font-size="14" lengthAdjust="spacing" textLength="82" x="899.5" y="75.1426">name : string</text><text fill="#000000" font-family="sans-serif" font-size="14" lengthAdjust="spacing" textLength="80" x="899.5" y="92.752">email : string</text><text fill="#000000" font-family="sans-serif" font-size="14" lengthAdjust="spacing" textLength="87" x="899.5" y="110.3613">phone : string</text><text fill="#000000" font-family="sans-serif" font-size="14" lengthAdjust="spacing" textLength="173" x="899.5" y="127.9707">registration_date : datetime</text><text fill="#000000" font-family="sans-serif" font-size="14" lengthAdjust="spacing" textLength="138" x="899.5" y="145.5801">updated_at : datetime</text><line style="stroke:#181818;stroke-width:0.5;" x1="880.5" x2="1077.5" y1="152.6563" y2="152.6563"/></g><!--link conferencias to ponencias--><g id="link_conferencias_ponencias"><path codeLine="69" d="M478.8029,168.4328 C492.5329,195.8428 496.4564,203.6772 510.5264,231.7572 " fill="none" id="conferencias-ponencias" style="stroke:#181818;stroke-width:1.0;"/><line style="stroke:#181818;stroke-width:1.0;" x1="473.4351" x2="480.5879" y1="166.6479" y2="163.0649"/><line style="stroke:#181818;stroke-width:1.0;" x1="474.7787" x2="481.9315" y1="169.3302" y2="165.7472"/><line style="stroke:#181818;stroke-width:1.0;" x1="478.8029" x2="475.22" y1="168.4328" y2="161.28"/><line style="stroke:#181818;stroke-width:1.0;" x1="515.0062" x2="523.9543" y1="240.6976" y2="245.1621"/><line style="stroke:#181818;stroke-width:1.0;" x1="515.0062" x2="513.2257" y1="240.6976" y2="250.5379"/><line style="stroke:#181818;stroke-width:1.0;" x1="515.0062" x2="518.59" y1="240.6976" y2="247.85"/><ellipse cx="512.3183" cy="235.3334" fill="none" rx="4" ry="4" style="stroke:#181818;stroke-width:1.0;"/><text fill="#000000" font-family="sans-serif" font-size="13" lengthAdjust="spacing" textLength="28" x="500" y="205.4951">tiene</text></g><!--link conferencias to talleres--><g id="link_conferencias_talleres"><path codeLine="70" d="M395.1976,168.4331 C380.0476,198.6831 374.2926,210.1567 359.1526,240.3767 " fill="none" id="conferencias-talleres" style="stroke:#181818;stroke-width:1.0;"/><line style="stroke:#181818;stroke-width:1.0;" x1="393.4123" x2="400.5653" y1="163.0653" y2="166.6477"/><line style="stroke:#181818;stroke-width:1.0;" x1="392.0688" x2="399.2219" y1="165.7477" y2="169.3301"/><line style="stroke:#181818;stroke-width:1.0;" x1="395.1976" x2="398.78" y1="168.4331" y2="161.28"/><line style="stroke:#181818;stroke-width:1.0;" x1="354.6734" x2="356.4544" y1="249.3174" y2="259.1575"/><line style="stroke:#181818;stroke-width:1.0;" x1="354.6734" x2="345.7256" y1="249.3174" y2="253.7825"/><line style="stroke:#181818;stroke-width:1.0;" x1="354.6734" x2="351.09" y1="249.3174" y2="256.47"/><ellipse cx="357.3609" cy="243.953" fill="none" rx="4" ry="4" style="stroke:#181818;stroke-width:1.0;"/><text fill="#000000" font-family="sans-serif" font-size="13" lengthAdjust="spacing" textLength="28" x="383" y="205.4951">tiene</text></g><!--link conferencias to inscripciones--><g id="link_conferencias_inscripciones"><path codeLine="71" d="M550.6073,153.5462 C594.7073,180.6262 639.29,208.66 685,239 C693.42,244.59 687.2488,240.2748 695.9188,246.2248 " fill="none" id="conferencias-inscripciones" style="stroke:#181818;stroke-width:1.0;"/><line style="stroke:#181818;stroke-width:1.0;" x1="545.1055" x2="549.2918" y1="154.8618" y2="148.0445"/><line style="stroke:#181818;stroke-width:1.0;" x1="547.662" x2="551.8482" y1="156.4316" y2="149.6143"/><line style="stroke:#181818;stroke-width:1.0;" x1="550.6073" x2="543.79" y1="153.5462" y2="149.36"/><line style="stroke:#181818;stroke-width:1.0;" x1="704.1639" x2="714.1551" y1="251.8833" y2="251.4629"/><line style="stroke:#181818;stroke-width:1.0;" x1="704.1639" x2="707.3649" y1="251.8833" y2="261.3571"/><line style="stroke:#181818;stroke-width:1.0;" x1="704.1639" x2="710.76" y1="251.8833" y2="256.41"/><ellipse cx="699.2168" cy="248.4882" fill="none" rx="4" ry="4" style="stroke:#181818;stroke-width:1.0;"/><text fill="#000000" font-family="sans-serif" font-size="13" lengthAdjust="spacing" textLength="43" x="639" y="205.4951">registra</text></g><!--link conferencias to cronograma--><g id="link_conferencias_cronograma"><path codeLine="72" d="M323.3321,149.1527 C278.4021,175.9927 233.25,205.09 189,239 C183.06,243.55 190.8308,236.8084 184.8908,241.8084 " fill="none" id="conferencias-cronograma" style="stroke:#181818;stroke-width:1.0;"/><line style="stroke:#181818;stroke-width:1.0;" x1="324.7147" x2="328.8174" y1="143.6674" y2="150.5353"/><line style="stroke:#181818;stroke-width:1.0;" x1="322.1392" x2="326.2419" y1="145.2059" y2="152.0738"/><line style="stroke:#181818;stroke-width:1.0;" x1="323.3321" x2="330.2" y1="149.1527" y2="145.05"/><line style="stroke:#181818;stroke-width:1.0;" x1="177.2404" x2="174.9839" y1="248.2482" y2="257.9903"/><line style="stroke:#181818;stroke-width:1.0;" x1="177.2404" x2="167.2561" y1="248.2482" y2="248.8097"/><line style="stroke:#181818;stroke-width:1.0;" x1="177.2404" x2="171.12" y1="248.2482" y2="253.4"/><ellipse cx="181.8306" cy="244.3843" fill="none" rx="4" ry="4" style="stroke:#181818;stroke-width:1.0;"/><text fill="#000000" font-family="sans-serif" font-size="13" lengthAdjust="spacing" textLength="34" x="255" y="205.4951">define</text></g><!--link personas to inscripciones--><g id="link_personas_inscripciones"><path codeLine="73" d="M924.6887,167.9736 C904.8887,198.2236 896.4112,211.1916 876.6212,241.4116 " fill="none" id="personas-inscripciones" style="stroke:#181818;stroke-width:1.0;"/><line style="stroke:#181818;stroke-width:1.0;" x1="923.5326" x2="930.2262" y1="162.4362" y2="166.8174"/><line style="stroke:#181818;stroke-width:1.0;" x1="921.8896" x2="928.5832" y1="164.9463" y2="169.3275"/><line style="stroke:#181818;stroke-width:1.0;" x1="924.6887" x2="929.07" y1="167.9736" y2="161.28"/><line style="stroke:#181818;stroke-width:1.0;" x1="871.1428" x2="871.7795" y1="249.7774" y2="259.7571"/><line style="stroke:#181818;stroke-width:1.0;" x1="871.1428" x2="861.7405" y1="249.7774" y2="253.1829"/><line style="stroke:#181818;stroke-width:1.0;" x1="871.1428" x2="866.76" y1="249.7774" y2="256.47"/><ellipse cx="874.4298" cy="244.7579" fill="none" rx="4" ry="4" style="stroke:#181818;stroke-width:1.0;"/><text fill="#000000" font-family="sans-serif" font-size="13" lengthAdjust="spacing" textLength="63" x="908" y="205.4951">se inscribe</text></g><!--link personas to pagos--><g id="link_personas_pagos"><path codeLine="74" d="M1011.4823,168.7389 C1023.2123,198.9889 1027.2815,209.4679 1039.0015,239.6879 " fill="none" id="personas-pagos" style="stroke:#181818;stroke-width:1.0;"/><line style="stroke:#181818;stroke-width:1.0;" x1="1006.3067" x2="1013.7656" y1="166.4556" y2="163.5633"/><line style="stroke:#181818;stroke-width:1.0;" x1="1007.3913" x2="1014.8502" y1="169.2527" y2="166.3603"/><line style="stroke:#181818;stroke-width:1.0;" x1="1011.4823" x2="1008.59" y1="168.7389" y2="161.28"/><line style="stroke:#181818;stroke-width:1.0;" x1="1042.6173" x2="1051.104" y1="249.0113" y2="254.3005"/><line style="stroke:#181818;stroke-width:1.0;" x1="1042.6173" x2="1039.916" y1="249.0113" y2="258.6395"/><line style="stroke:#181818;stroke-width:1.0;" x1="1042.6173" x2="1045.51" y1="249.0113" y2="256.47"/><ellipse cx="1040.4478" cy="243.4172" fill="none" rx="4" ry="4" style="stroke:#181818;stroke-width:1.0;"/><text fill="#000000" font-family="sans-serif" font-size="13" lengthAdjust="spacing" textLength="38" x="1028" y="205.4951">realiza</text></g><!--SRC=[lLJBJiCm4BpdAwnU0eB-G6y82GbngVY1QB6tOIM_P3j8fUNVsJYbQeA3r2B8oHvFTcVNuqMRA6s5T7Q30QqaY69N2VvkI8cLM3_b3PCqyZQcGBRDaC8e0_b4peuFOeBKHSRGTkQglfE9th2-5VMZXM5zdNao82HK3IJcAbucCfXFEgyA9nzLXODQiZcrvDHOb7ii1viCFmomnn2T7K6pOk-1_zOQrK5jm9QuIEZhRNfDvuhsB7QslpE22stt0ID7nF3VJPV1MTS6C7160H5Zx1jMA8GLXzJqIQPAqAeYhfs4xtQxlA84VBy1VtaXVzzv3wqhYYpu6OphR8w3aWpeaiGra2fPtCFMSChBt9sbbCrjmKnwXWP8JtpzokzZ35t-v6hnZ1eEyu4L1XGQyeeKyE2gHlDklryktUxaWQx48X5QN1HvHzlyJ1iFAUP-bLEcdpmlvYhSK1_usDQve14Fs4k1FHWdfmPDxvpv4m00]--></g></svg>